<svg width="21" height="21" viewBox="0 0 21 21" fill="none" xmlns="http://www.w3.org/2000/svg">
<path d="M5.011 18.011V6.986C5.011 6.436 5.211 5.96933 5.611 5.586C6.011 5.20267 6.486 5.011 7.036 5.011H18.011C18.561 5.011 19.032 5.20667 19.424 5.598C19.816 5.98933 20.0117 6.46033 20.011 7.011V15.011L15.011 20.011H7.011C6.461 20.011 5.99033 19.8153 5.599 19.424C5.20767 19.0327 5.01167 18.5617 5.011 18.011ZM0.036 4.261C-0.064 3.711 0.0443332 3.21533 0.361 2.774C0.677666 2.33267 1.111 2.06167 1.661 1.961L12.511 0.036C13.061 -0.064 13.557 0.0443332 13.999 0.361C14.441 0.677666 14.7117 1.111 14.811 1.661L15.061 3.011H7.011C5.911 3.011 4.96933 3.40267 4.186 4.186C3.40267 4.96933 3.011 5.911 3.011 7.011V16.561C2.74433 16.411 2.51533 16.211 2.324 15.961C2.13267 15.711 2.01167 15.4277 1.961 15.111L0.036 4.261ZM18.011 14.011H14.011V18.011L18.011 14.011Z" fill="#22348A"/>
</svg>
